<svg width="306" height="95" viewBox="0 0 306 95" fill="none" xmlns="http://www.w3.org/2000/svg">
<g clip-path="url(#clip0_111_2220)">
<g clip-path="url(#clip1_111_2220)">
<rect x="20" y="27" width="20" height="20" rx="4" fill="#006826"/>
<path d="M52.1055 34.6035L53.5137 37.0576L54.9492 34.6035H56.7607L54.5186 38.2334L56.8496 42H55.0381L53.5342 39.4434L52.0303 42H50.2119L52.5361 38.2334L50.3008 34.6035H52.1055ZM59.1465 34.6035L60.5547 37.0576L61.9902 34.6035H63.8018L61.5596 38.2334L63.8906 42H62.0791L60.5752 39.4434L59.0713 42H57.2529L59.5771 38.2334L57.3418 34.6035H59.1465ZM66.1875 34.6035L67.5957 37.0576L69.0312 34.6035H70.8428L68.6006 38.2334L70.9316 42H69.1201L67.6162 39.4434L66.1123 42H64.2939L66.6182 38.2334L64.3828 34.6035H66.1875ZM73.2285 34.6035L74.6367 37.0576L76.0723 34.6035H77.8838L75.6416 38.2334L77.9727 42H76.1611L74.6572 39.4434L73.1533 42H71.335L73.6592 38.2334L71.4238 34.6035H73.2285ZM80.2695 34.6035L81.6777 37.0576L83.1133 34.6035H84.9248L82.6826 38.2334L85.0137 42H83.2021L81.6982 39.4434L80.1943 42H78.376L80.7002 38.2334L78.4648 34.6035H80.2695ZM87.3105 34.6035L88.7188 37.0576L90.1543 34.6035H91.9658L89.7236 38.2334L92.0547 42H90.2432L88.7393 39.4434L87.2354 42H85.417L87.7412 38.2334L85.5059 34.6035H87.3105ZM94.3516 34.6035L95.7598 37.0576L97.1953 34.6035H99.0068L96.7646 38.2334L99.0957 42H97.2842L95.7803 39.4434L94.2764 42H92.458L94.7822 38.2334L92.5469 34.6035H94.3516Z" fill="black"/>
</g>
<g clip-path="url(#clip2_111_2220)">
<rect x="20" y="57" width="20" height="20" rx="4" fill="#003436"/>
<path d="M52.1055 64.6035L53.5137 67.0576L54.9492 64.6035H56.7607L54.5186 68.2334L56.8496 72H55.0381L53.5342 69.4434L52.0303 72H50.2119L52.5361 68.2334L50.3008 64.6035H52.1055ZM59.1465 64.6035L60.5547 67.0576L61.9902 64.6035H63.8018L61.5596 68.2334L63.8906 72H62.0791L60.5752 69.4434L59.0713 72H57.2529L59.5771 68.2334L57.3418 64.6035H59.1465ZM66.1875 64.6035L67.5957 67.0576L69.0312 64.6035H70.8428L68.6006 68.2334L70.9316 72H69.1201L67.6162 69.4434L66.1123 72H64.2939L66.6182 68.2334L64.3828 64.6035H66.1875ZM73.2285 64.6035L74.6367 67.0576L76.0723 64.6035H77.8838L75.6416 68.2334L77.9727 72H76.1611L74.6572 69.4434L73.1533 72H71.335L73.6592 68.2334L71.4238 64.6035H73.2285ZM80.2695 64.6035L81.6777 67.0576L83.1133 64.6035H84.9248L82.6826 68.2334L85.0137 72H83.2021L81.6982 69.4434L80.1943 72H78.376L80.7002 68.2334L78.4648 64.6035H80.2695ZM87.3105 64.6035L88.7188 67.0576L90.1543 64.6035H91.9658L89.7236 68.2334L92.0547 72H90.2432L88.7393 69.4434L87.2354 72H85.417L87.7412 68.2334L85.5059 64.6035H87.3105ZM94.3516 64.6035L95.7598 67.0576L97.1953 64.6035H99.0068L96.7646 68.2334L99.0957 72H97.2842L95.7803 69.4434L94.2764 72H92.458L94.7822 68.2334L92.5469 64.6035H94.3516Z" fill="black"/>
</g>
<g clip-path="url(#clip3_111_2220)">
<rect x="124.5" y="26" width="20" height="20" rx="4" fill="#11AC4A"/>
<path d="M156.605 33.6035L158.014 36.0576L159.449 33.6035H161.261L159.019 37.2334L161.35 41H159.538L158.034 38.4434L156.53 41H154.712L157.036 37.2334L154.801 33.6035H156.605ZM163.646 33.6035L165.055 36.0576L166.49 33.6035H168.302L166.06 37.2334L168.391 41H166.579L165.075 38.4434L163.571 41H161.753L164.077 37.2334L161.842 33.6035H163.646ZM170.688 33.6035L172.096 36.0576L173.531 33.6035H175.343L173.101 37.2334L175.432 41H173.62L172.116 38.4434L170.612 41H168.794L171.118 37.2334L168.883 33.6035H170.688ZM177.729 33.6035L179.137 36.0576L180.572 33.6035H182.384L180.142 37.2334L182.473 41H180.661L179.157 38.4434L177.653 41H175.835L178.159 37.2334L175.924 33.6035H177.729ZM184.77 33.6035L186.178 36.0576L187.613 33.6035H189.425L187.183 37.2334L189.514 41H187.702L186.198 38.4434L184.694 41H182.876L185.2 37.2334L182.965 33.6035H184.77ZM191.811 33.6035L193.219 36.0576L194.654 33.6035H196.466L194.224 37.2334L196.555 41H194.743L193.239 38.4434L191.735 41H189.917L192.241 37.2334L190.006 33.6035H191.811ZM198.852 33.6035L200.26 36.0576L201.695 33.6035H203.507L201.265 37.2334L203.596 41H201.784L200.28 38.4434L198.776 41H196.958L199.282 37.2334L197.047 33.6035H198.852Z" fill="black"/>
</g>
<g clip-path="url(#clip4_111_2220)">
<rect x="124.5" y="58" width="20" height="20" rx="4" fill="#1CB495"/>
<path d="M156.605 65.6035L158.014 68.0576L159.449 65.6035H161.261L159.019 69.2334L161.35 73H159.538L158.034 70.4434L156.53 73H154.712L157.036 69.2334L154.801 65.6035H156.605ZM163.646 65.6035L165.055 68.0576L166.49 65.6035H168.302L166.06 69.2334L168.391 73H166.579L165.075 70.4434L163.571 73H161.753L164.077 69.2334L161.842 65.6035H163.646ZM170.688 65.6035L172.096 68.0576L173.531 65.6035H175.343L173.101 69.2334L175.432 73H173.62L172.116 70.4434L170.612 73H168.794L171.118 69.2334L168.883 65.6035H170.688ZM177.729 65.6035L179.137 68.0576L180.572 65.6035H182.384L180.142 69.2334L182.473 73H180.661L179.157 70.4434L177.653 73H175.835L178.159 69.2334L175.924 65.6035H177.729ZM184.77 65.6035L186.178 68.0576L187.613 65.6035H189.425L187.183 69.2334L189.514 73H187.702L186.198 70.4434L184.694 73H182.876L185.2 69.2334L182.965 65.6035H184.77ZM191.811 65.6035L193.219 68.0576L194.654 65.6035H196.466L194.224 69.2334L196.555 73H194.743L193.239 70.4434L191.735 73H189.917L192.241 69.2334L190.006 65.6035H191.811ZM198.852 65.6035L200.26 68.0576L201.695 65.6035H203.507L201.265 69.2334L203.596 73H201.784L200.28 70.4434L198.776 73H196.958L199.282 69.2334L197.047 65.6035H198.852Z" fill="black"/>
</g>
<rect x="228" y="26" width="20" height="20" rx="4" fill="#B2D1BD"/>
<path d="M260.105 33.6035L261.514 36.0576L262.949 33.6035H264.761L262.519 37.2334L264.85 41H263.038L261.534 38.4434L260.03 41H258.212L260.536 37.2334L258.301 33.6035H260.105ZM267.146 33.6035L268.555 36.0576L269.99 33.6035H271.802L269.56 37.2334L271.891 41H270.079L268.575 38.4434L267.071 41H265.253L267.577 37.2334L265.342 33.6035H267.146ZM274.188 33.6035L275.596 36.0576L277.031 33.6035H278.843L276.601 37.2334L278.932 41H277.12L275.616 38.4434L274.112 41H272.294L274.618 37.2334L272.383 33.6035H274.188ZM281.229 33.6035L282.637 36.0576L284.072 33.6035H285.884L283.642 37.2334L285.973 41H284.161L282.657 38.4434L281.153 41H279.335L281.659 37.2334L279.424 33.6035H281.229ZM288.27 33.6035L289.678 36.0576L291.113 33.6035H292.925L290.683 37.2334L293.014 41H291.202L289.698 38.4434L288.194 41H286.376L288.7 37.2334L286.465 33.6035H288.27ZM295.311 33.6035L296.719 36.0576L298.154 33.6035H299.966L297.724 37.2334L300.055 41H298.243L296.739 38.4434L295.235 41H293.417L295.741 37.2334L293.506 33.6035H295.311ZM302.352 33.6035L303.76 36.0576L305.195 33.6035H307.007L304.765 37.2334L307.096 41H305.284L303.78 38.4434L302.276 41H300.458L302.782 37.2334L300.547 33.6035H302.352Z" fill="black"/>
<rect x="228" y="58" width="20" height="20" rx="4" fill="#0D5456"/>
<path d="M260.105 65.6035L261.514 68.0576L262.949 65.6035H264.761L262.519 69.2334L264.85 73H263.038L261.534 70.4434L260.03 73H258.212L260.536 69.2334L258.301 65.6035H260.105ZM267.146 65.6035L268.555 68.0576L269.99 65.6035H271.802L269.56 69.2334L271.891 73H270.079L268.575 70.4434L267.071 73H265.253L267.577 69.2334L265.342 65.6035H267.146ZM274.188 65.6035L275.596 68.0576L277.031 65.6035H278.843L276.601 69.2334L278.932 73H277.12L275.616 70.4434L274.112 73H272.294L274.618 69.2334L272.383 65.6035H274.188ZM281.229 65.6035L282.637 68.0576L284.072 65.6035H285.884L283.642 69.2334L285.973 73H284.161L282.657 70.4434L281.153 73H279.335L281.659 69.2334L279.424 65.6035H281.229ZM288.27 65.6035L289.678 68.0576L291.113 65.6035H292.925L290.683 69.2334L293.014 73H291.202L289.698 70.4434L288.194 73H286.376L288.7 69.2334L286.465 65.6035H288.27ZM295.311 65.6035L296.719 68.0576L298.154 65.6035H299.966L297.724 69.2334L300.055 73H298.243L296.739 70.4434L295.235 73H293.417L295.741 69.2334L293.506 65.6035H295.311ZM302.352 65.6035L303.76 68.0576L305.195 65.6035H307.007L304.765 69.2334L307.096 73H305.284L303.78 70.4434L302.276 73H300.458L302.782 69.2334L300.547 65.6035H302.352Z" fill="black"/>
</g>
<defs>
<clipPath id="clip0_111_2220">
<rect width="306" height="95" fill="white"/>
</clipPath>
<clipPath id="clip1_111_2220">
<rect width="80" height="20" fill="white" transform="translate(20 27)"/>
</clipPath>
<clipPath id="clip2_111_2220">
<rect width="80" height="20" fill="white" transform="translate(20 57)"/>
</clipPath>
<clipPath id="clip3_111_2220">
<rect width="80" height="22" fill="white" transform="translate(124.5 25)"/>
</clipPath>
<clipPath id="clip4_111_2220">
<rect width="80" height="22" fill="white" transform="translate(124.5 57)"/>
</clipPath>
</defs>
</svg>
